<svg width="58" height="17" viewBox="0 0 58 17" fill="none" xmlns="http://www.w3.org/2000/svg">
<g clip-path="url(#clip0_34_31)">
<path fill-rule="evenodd" clip-rule="evenodd" d="M5.35204 12.6905L7.72765 15.6324H1.84608L5.35204 12.6905ZM4.60501 11.7818L0.00415019 15.6414L0.00226374 6.14923L4.60501 11.7818ZM15.6751 2.2238C15.6751 2.2238 14.665 1.74566 13.4917 1.81549C12.1502 1.89449 11.028 2.40895 10.3828 3.08777C9.97686 3.51424 9.52808 4.0345 9.30265 4.5995C8.97573 5.41686 8.90593 6.49688 8.90593 6.49688C8.90593 6.49688 8.43677 6.09868 7.84895 4.93835C7.16549 3.58875 6.97854 2.7712 6.88592 1.83852C6.80348 1.02003 6.93289 0.210724 6.93289 0.210724H15.6751V2.2238ZM15.6751 4.91476V10.8999C15.6751 10.8999 15.1316 11.1086 14.6883 11.1086C14.2449 11.1086 13.49 11.0429 12.6132 10.5608C11.7427 10.0827 11.2609 9.50422 10.8874 8.98004C10.5086 8.44686 10.1959 7.70775 10.1029 7.17514C10.0282 6.74905 9.94762 5.68625 10.3828 4.82247C10.619 4.35369 11.2528 3.55018 12.4732 3.5045C13.4679 3.46631 14.0195 3.72785 14.5251 4.00529C15.4872 4.53435 15.6751 4.91476 15.6751 4.91476ZM6.15586 10.4796L7.73274 9.16519C7.23019 8.52324 7.09739 8.28137 6.5356 7.45259C5.96042 6.60434 5.47862 5.67109 5.06662 4.5761C4.62067 3.38993 4.51295 2.72402 4.56219 1.83852C4.62387 0.711886 4.88005 0.210724 4.88005 0.210724H0L0.00226374 2.84084C0.00226374 2.84084 3.73781 7.52223 6.15586 10.4796ZM10.6614 15.6281H15.6751V11.9724C15.6751 11.9724 14.4315 12.5428 13.6232 12.5889C13.1419 12.617 12.6748 12.6355 11.9212 12.435C11.0834 12.2124 10.6075 11.9954 9.83104 11.355C9.20738 10.8413 8.4943 10.0827 8.4943 10.0827L6.90818 11.4052C7.64408 12.3053 8.18757 12.9605 8.35395 13.1369C9.06929 13.8928 9.37244 14.1706 9.85424 14.44C10.3358 14.71 11.945 14.6954 11.945 14.6954L10.6614 15.6281Z" fill="#E94E0F"/>
<path fill-rule="evenodd" clip-rule="evenodd" d="M53.5926 12.3763C53.5926 13.4355 53.7354 15.1766 52.5492 15.6004V15.671H57.0545V15.6004C55.869 15.1534 56.0113 13.4355 56.0113 12.3763V3.50494C56.0113 2.44626 55.869 0.704832 57.0545 0.257773V0.187195H52.5492V0.257773C53.7587 0.704832 53.5926 2.42267 53.5926 3.50494V12.3763ZM37.0728 3.50494L45.2062 13.7414C46.2493 15.0824 46.9848 15.8593 48.6683 16.4238V3.22263C48.6683 1.90504 48.6683 0.963557 49.9016 0.257773V0.187195H45.7278V0.257773C46.9848 0.963557 46.9606 1.90504 46.9606 3.22263V12.1411L38.2824 1.26946L37.95 0.798811C37.7844 0.610665 37.6897 0.493097 37.5948 0.210783V0.187195H34.1322V0.257773C35.3654 0.963557 35.3654 1.90504 35.3654 3.22263V12.6122C35.3654 13.9296 35.3654 14.8707 34.109 15.6004V15.671H38.3062V15.6004C37.0492 14.8707 37.0728 13.9296 37.0728 12.6122V3.50494ZM23.815 6.42317V1.81106L25.4034 1.64594C26.8264 1.50478 28.3437 2.3521 28.3437 3.97596C28.3437 5.90554 26.1384 6.42317 24.5975 6.42317H23.815ZM23.815 13.7884V7.9759L25.4745 7.88192C27.5613 7.76416 29.7902 8.75282 29.7902 11.0353C29.7902 13.2708 27.8226 14.1649 25.8777 13.9767L23.815 13.7884ZM21.396 12.3529C21.396 13.4355 21.5385 15.1534 20.3525 15.6004V15.671H24.2651C26.0435 15.671 27.9173 15.7418 29.5768 14.9416C31.1656 14.1885 32.4225 12.6352 32.4225 10.8232C32.4225 8.5175 30.6911 7.10537 28.557 6.65794C29.9088 6.06991 30.9281 5.17579 30.9281 3.59911C30.9281 1.50478 29.1028 0.187195 25.9729 0.187195H20.3525V0.257773C21.5624 0.704832 21.396 2.42267 21.396 3.48135V12.3529Z" fill="#005B6A"/>
</g>
<defs>
<clipPath id="clip0_34_31">
<rect width="58" height="17" fill="white"/>
</clipPath>
</defs>
</svg>
