<svg width="90" height="23" viewBox="0 0 90 23" fill="none" xmlns="http://www.w3.org/2000/svg">
<g clip-path="url(#clip0_34_16)">
<path fill-rule="evenodd" clip-rule="evenodd" d="M24.4873 6.27094H29.2643C31.1987 6.27094 32.6408 7.12524 32.6408 8.9237C32.6408 10.2423 31.9723 10.9767 30.811 11.3657V11.3954C32.1951 11.6809 32.9094 12.4303 32.9094 13.7033C32.9094 16.2065 30.7213 16.7305 28.8616 16.7305H24.4873V6.27094ZM27.2542 10.407H28.0287C28.9363 10.407 29.8743 10.1821 29.8743 9.29726C29.8743 8.33942 28.9812 8.24865 28.0577 8.24865H27.2542V10.407ZM27.2542 14.7528H28.074C29.0849 14.7528 30.1411 14.6028 30.1411 13.5386C30.1411 12.4006 29.0555 12.2948 28.103 12.2948H27.2542V14.7528Z" fill="white"/>
<path fill-rule="evenodd" clip-rule="evenodd" d="M36.5417 6.27094H39.9345L43.9374 16.7305H40.9015L40.1283 14.4983H36.2296L35.4107 16.7305H32.5986L36.5417 6.27094ZM38.2388 8.42926H38.2075L36.8692 12.5206H39.473L38.2388 8.42926Z" fill="white"/>
<path fill-rule="evenodd" clip-rule="evenodd" d="M44.3228 6.27094H47.8492L51.3611 13.3745H51.3901L51.3462 6.27094H53.8766V16.7305H50.439L46.807 9.58278H46.7785L46.8673 16.7305H44.3228V6.27094Z" fill="white"/>
<path fill-rule="evenodd" clip-rule="evenodd" d="M54.8164 6.27094H57.5837V10.5429H57.6136L60.7374 6.27094H64.0718L60.2319 11.1409L64.3693 16.7305H60.8415L57.6136 11.9806H57.5837V16.7305H54.8164V6.27094Z" fill="white"/>
<path fill-rule="evenodd" clip-rule="evenodd" d="M67.8003 6.27094H72.5772C74.5112 6.27094 75.9551 7.12524 75.9551 8.9237C75.9551 10.2423 75.2866 10.9767 74.1253 11.3657V11.3954C75.509 11.6809 76.2232 12.4303 76.2232 13.7033C76.2232 16.2065 74.0356 16.7305 72.1764 16.7305H67.8003V6.27094ZM70.5685 10.407H71.3416C72.2497 10.407 73.1864 10.1821 73.1864 9.29726C73.1864 8.33942 72.2946 8.24865 71.3724 8.24865H70.5685V10.407ZM70.5685 14.7528H71.3874C72.3983 14.7528 73.4554 14.6028 73.4554 13.5386C73.4554 12.4006 72.3693 12.2948 71.4168 12.2948H70.5685V14.7528Z" fill="white"/>
<path fill-rule="evenodd" clip-rule="evenodd" d="M76.8369 6.27094H81.7773C83.622 6.27094 85.1257 7.10973 85.1257 8.9091C85.1257 10.3025 84.4708 11.2316 83.132 11.5459V11.5756C84.0229 11.8159 84.0836 12.6096 84.6044 13.8835L85.6167 16.7305H82.7302L82.1347 14.8436C81.569 13.0451 81.2116 12.5945 80.1848 12.5945H79.6042V16.7305H76.8369V6.27094ZM79.6042 10.6168H80.3339C81.2266 10.6168 82.358 10.5862 82.358 9.40262C82.358 8.42927 81.3896 8.24865 80.3339 8.24865H79.6042V10.6168Z" fill="white"/>
<mask id="mask0_34_16" style="mask-type:luminance" maskUnits="userSpaceOnUse" x="0" y="0" width="90" height="23">
<path fill-rule="evenodd" clip-rule="evenodd" d="M0.50293 22.0129H89.1463V0.996094H0.50293V22.0129Z" fill="white"/>
</mask>
<g mask="url(#mask0_34_16)">
<path fill-rule="evenodd" clip-rule="evenodd" d="M86.3789 16.7306H89.1462V6.27103H86.3789V16.7306Z" fill="white"/>
<path fill-rule="evenodd" clip-rule="evenodd" d="M18.1717 0.996002H3.68649C1.92826 0.996002 0.50293 2.46697 0.50293 4.28184V4.31651V18.7279C0.50293 20.525 1.90199 21.9859 3.63758 22.0128H18.164C19.9227 22.0128 21.3485 20.5418 21.3485 18.7279L21.3553 4.28184C21.3553 2.46697 19.9304 0.996002 18.1717 0.996002ZM5.40857 20.3288L4.61823 20.3375C3.66166 20.3375 2.88627 19.5461 2.88627 18.5696L2.88174 18.4305V5.08915L2.88672 4.37077C2.9225 3.42571 3.6354 2.66491 4.56931 2.66491H6.17582C7.6315 2.66491 8.81226 3.93975 8.81226 5.44401C8.81226 6.18747 8.52284 6.86252 8.05407 7.3533L3.95516 11.5418L7.79681 15.4812C8.2923 15.9953 8.59168 16.6712 8.59168 17.4115C8.59168 19.023 7.16635 20.3288 5.40857 20.3288ZM17.2188 20.3156L10.0564 20.3124C10.0564 20.3124 10.8847 18.5098 10.8847 17.3942C10.8847 16.0341 10.4327 14.8185 9.72577 14.0144L7.27593 11.4994L9.7765 8.8977C10.5206 8.19301 11.0152 6.94234 11.0152 5.5179C11.0152 4.38993 10.7054 3.39059 10.2067 2.66491H11.9423C13.3984 2.66491 14.5792 3.93975 14.5792 5.44401C14.5792 6.18747 14.2902 6.86252 13.8215 7.3533L9.80095 11.498L18.1514 20.0734C17.8869 20.2412 17.5531 20.3156 17.2188 20.3156ZM18.9679 17.6382L12.9834 11.4962L15.8337 8.57889C16.4143 7.84866 16.7821 6.74805 16.7821 5.51792C16.7821 4.38265 16.4677 3.35913 15.9645 2.633L17.2404 2.67131C18.197 2.67131 18.9724 3.46404 18.9724 4.44012L18.9679 17.6382Z" fill="white"/>
</g>
</g>
<defs>
<clipPath id="clip0_34_16">
<rect width="90" height="23" fill="white"/>
</clipPath>
</defs>
</svg>
