<svg width="32" height="32" viewBox="0 0 32 32" fill="none" xmlns="http://www.w3.org/2000/svg">
<path d="M16 0.25C12.885 0.25 9.83985 1.17372 7.24978 2.90435C4.6597 4.63499 2.64098 7.0948 1.4489 9.97274C0.256824 12.8507 -0.0550783 16.0175 0.552639 19.0727C1.16036 22.1279 2.6604 24.9343 4.86307 27.1369C7.06575 29.3396 9.87213 30.8397 12.9273 31.4474C15.9825 32.0551 19.1493 31.7432 22.0273 30.5511C24.9052 29.359 27.365 27.3403 29.0957 24.7502C30.8263 22.1602 31.75 19.1151 31.75 16C31.7452 11.8243 30.0843 7.821 27.1317 4.86833C24.179 1.91566 20.1757 0.254764 16 0.25ZM24.991 26.0417C24.9686 24.5661 24.3674 23.1584 23.3169 22.1218C22.2664 21.0852 20.8508 20.5028 19.375 20.5H12.625C11.1492 20.5028 9.73357 21.0852 8.68311 22.1218C7.63264 23.1584 7.03143 24.5661 7.00901 26.0417C4.96889 24.2201 3.5302 21.8217 2.88345 19.1642C2.23669 16.5068 2.41237 13.7155 3.38723 11.1601C4.36208 8.60467 6.09013 6.40563 8.34255 4.85414C10.595 3.30265 13.2655 2.4719 16.0006 2.4719C18.7356 2.4719 21.4062 3.30265 23.6586 4.85414C25.911 6.40563 27.6391 8.60467 28.6139 11.1601C29.5888 13.7155 29.7645 16.5068 29.1177 19.1642C28.4709 21.8217 27.0311 24.2201 24.991 26.0417Z" fill="#1C1C1C"/>
</svg>
